<?xml version="1.0" ?><svg id="Layer_1" style="enable-background:new 0 0 100 100;" version="1.1" viewBox="0 0 100 100" xml:space="preserve" xmlns="http://www.w3.org/2000/svg" xmlns:xlink="http://www.w3.org/1999/xlink"><style type="text/css">
	.st0{fill:url(#SVGID_1_);}
	.st1{fill:url(#SVGID_2_);}
	.st2{fill:#D01D01;}
	.st3{fill:#FFFFFF;}
	.st4{fill:#5E260A;}
	.st5{fill:#CF1A01;}
	.st6{fill:#CC0502;}
	.st7{fill:#C70C00;}
	.st8{fill:url(#SVGID_3_);}
	.st9{fill:url(#SVGID_4_);}
	.st10{fill:#C10808;}
	.st11{fill:url(#SVGID_5_);}
	.st12{fill:url(#SVGID_6_);}
	.st13{fill:url(#SVGID_7_);}
	.st14{fill:url(#SVGID_8_);}
	.st15{fill:url(#SVGID_9_);}
	.st16{fill:url(#SVGID_10_);}
	.st17{fill:url(#SVGID_11_);}
	.st18{fill:url(#SVGID_12_);}
	.st19{fill:url(#SVGID_13_);}
	.st20{fill:url(#SVGID_14_);}
	.st21{fill:url(#SVGID_15_);}
	.st22{fill:url(#SVGID_16_);}
	.st23{fill:url(#SVGID_17_);}
	.st24{fill:url(#SVGID_18_);}
	.st25{fill:url(#SVGID_19_);}
	.st26{fill:url(#SVGID_20_);}
	.st27{fill:url(#SVGID_21_);}
	.st28{fill:url(#SVGID_22_);}
	.st29{fill:url(#SVGID_23_);}
	.st30{fill:url(#SVGID_24_);}
	.st31{fill:url(#SVGID_25_);}
	.st32{fill:url(#SVGID_26_);}
	.st33{fill:url(#SVGID_27_);}
	.st34{fill:url(#SVGID_28_);}
	.st35{fill:url(#SVGID_29_);}
	.st36{fill:url(#SVGID_30_);}
	.st37{fill:url(#SVGID_31_);}
	.st38{fill:url(#SVGID_32_);}
</style><g><g><g><linearGradient gradientUnits="userSpaceOnUse" id="SVGID_1_" x1="50" x2="50" y1="14.1641" y2="83.5592"><stop offset="0" style="stop-color:#F19204"/><stop offset="1" style="stop-color:#CB0D01"/></linearGradient><path class="st0" d="M80.5,35.8c2,9.5,2,19,0,28.4c-1.6,6.6-9.6,14.5-16.2,16.1c-9.6,2-19.1,2-28.7,0     c-6.6-1.6-14.6-9.5-16.2-16.1c-2-9.5-2-19,0-28.4c1.6-6.6,9.6-14.5,16.2-16.1c9.6-2,19.1-2,28.7,0C71,21.3,78.9,29.2,80.5,35.8z"/></g><linearGradient gradientTransform="matrix(-4.468094e-07 -1 1 7.523820e-07 1011.5012 -2879.4988)" gradientUnits="userSpaceOnUse" id="SVGID_2_" x1="-2954.8318" x2="-2904.165" y1="-961.5018" y2="-961.5018"><stop offset="0" style="stop-color:#F19204"/><stop offset="1" style="stop-color:#CB0D01"/></linearGradient><path class="st1" d="M74,65.4c-0.7,4-4.8,8.1-8.7,8.7c-10.2,1.6-20.3,1.6-30.5,0c-4-0.7-8.1-4.8-8.7-8.7    c-1.6-10.3-1.6-20.6,0-30.8c0.7-4,4.8-8.1,8.7-8.7c10.2-1.6,20.3-1.6,30.5,0c4,0.7,8.1,4.8,8.7,8.7C75.6,44.9,75.6,55.1,74,65.4z"/></g><g><path class="st3" d="M41.4,36C41,45.3,41,54.7,41.4,64c0.1,2.2,2.7,3.5,4.3,2.1c5.1-4.6,10.6-9.5,16-14.2c1.2-1,1.2-2.8,0-3.9    c-5.4-4.7-11-9.6-16-14.2C44.1,32.4,41.5,33.8,41.4,36z"/><g><path class="st10" d="M41.4,36c-0.2,5.9-0.3,11.7-0.3,17.6c0,3.1,0.1,6.3,0.2,9.4c0,1,0.1,2,0.1,3c0.2,2.3,2.2,4.2,4.2,2.7     c1.8-1.4,3.4-3.1,5.2-4.7c2.8-2.5,5.7-5.1,8.6-7.6c0.7-0.6,1.5-1.2,2.1-1.8c1.6-1.6,1.1-4.6,1-6.5c-0.1-2.4-3-4.1-4.7-5.6     c-3.3-2.9-6.5-5.8-9.6-8.6c-0.8-0.8-1.6-1.6-2.5-2.2c-1.7-1.4-4-0.2-4.3,2.1c-0.2,1.5-0.1,3.6-0.2,4.8c0.3-2.2,2.6-3.3,4.3-2     c0.3,0.3,0.7,0.6,1,0.9c1.9,1.7,3.8,3.4,5.7,5.1c2.2,2,4.5,4,6.7,5.9c1.3,1.1,3.4,2.4,3.5,4.2c0-1.6,0-3.2,0-4.9     c-0.1,1.6-1.4,2.3-2.5,3.3c-1.7,1.5-3.4,2.9-5.1,4.4c-3.1,2.7-6.2,5.6-9.2,8.2c-0.5,0.4-0.9,0.7-1.6,0.8c-0.7,0.1-1.4-0.2-2-0.7     c-0.9-0.7-1.1-2.6-0.9,0.4c-0.1-1-0.1-2-0.1-3c-0.2-4.8-0.2-9.5-0.2-14.3C41.2,43.2,41.3,39.6,41.4,36c0.1-0.2,0.2-2.5,0.1-2.5     C41.5,33.5,41.4,36,41.4,36z"/></g></g></g></svg>